<mxfile host="app.diagrams.net" modified="2023-07-16T20:25:25.542Z" agent="Mozilla/5.0 (Macintosh; Intel Mac OS X 10_15_7) AppleWebKit/537.36 (KHTML, like Gecko) Chrome/114.0.0.0 Safari/537.36" etag="9emF4u98bGaaikJYexkV" version="21.6.2" type="github">
  <diagram name="Page-1" id="c7558073-3199-34d8-9f00-42111426c3f3">
    <mxGraphModel dx="1325" dy="986" grid="0" gridSize="10" guides="1" tooltips="1" connect="1" arrows="1" fold="1" page="1" pageScale="1" pageWidth="826" pageHeight="1169" background="none" math="0" shadow="0">
      <root>
        <mxCell id="0" />
        <mxCell id="1" parent="0" />
        <mxCell id="vlh80ezhbno16NErjXZo-96" value="" style="image;html=1;image=img/lib/clip_art/computers/Laptop_128x128.png" vertex="1" parent="1">
          <mxGeometry x="4" y="505" width="160" height="160" as="geometry" />
        </mxCell>
        <mxCell id="vlh80ezhbno16NErjXZo-99" value="" style="dashed=0;outlineConnect=0;html=1;align=center;labelPosition=center;verticalLabelPosition=bottom;verticalAlign=top;shape=mxgraph.weblogos.github" vertex="1" parent="1">
          <mxGeometry x="254" y="498" width="150" height="150" as="geometry" />
        </mxCell>
        <mxCell id="vlh80ezhbno16NErjXZo-102" value="" style="image;html=1;image=img/lib/clip_art/computers/Server_128x128.png" vertex="1" parent="1">
          <mxGeometry x="444" y="338" width="160" height="160" as="geometry" />
        </mxCell>
        <mxCell id="vlh80ezhbno16NErjXZo-104" value="" style="image;html=1;image=img/lib/clip_art/computers/Server_Tower_128x128.png" vertex="1" parent="1">
          <mxGeometry x="444" y="648" width="160" height="160" as="geometry" />
        </mxCell>
        <mxCell id="vlh80ezhbno16NErjXZo-109" value="" style="shape=image;html=1;verticalAlign=top;verticalLabelPosition=bottom;labelBackgroundColor=#ffffff;imageAspect=0;aspect=fixed;image=https://cdn3.iconfinder.com/data/icons/dompicon-glyph-file-format-2/256/file-jar-format-type-128.png" vertex="1" parent="1">
          <mxGeometry x="657" y="358" width="120" height="120" as="geometry" />
        </mxCell>
        <mxCell id="vlh80ezhbno16NErjXZo-110" value="" style="shape=image;html=1;verticalAlign=top;verticalLabelPosition=bottom;labelBackgroundColor=#ffffff;imageAspect=0;aspect=fixed;image=https://cdn3.iconfinder.com/data/icons/dompicon-glyph-file-format-2/256/file-jar-format-type-128.png" vertex="1" parent="1">
          <mxGeometry x="657" y="668" width="120" height="120" as="geometry" />
        </mxCell>
      </root>
    </mxGraphModel>
  </diagram>
</mxfile>
